<svg xmlns="http://www.w3.org/2000/svg" width="800" height="800" viewBox="0 0 1024 1024" xmlns:v="https://vecta.io/nano"><path d="M938.667 290.133c0-132.267-27.733-204.8-91.733-204.8-61.867 0-70.4 68.267-113.067 149.333-12.8 2.133-23.467 12.8-23.467 27.733 0 4.267 0 8.533 2.133 10.667-14.933 25.6-29.867 49.067-44.8 72.533h-4.267c-14.933 0-27.733 12.8-27.733 27.733 0 6.4 2.133 10.667 4.267 14.933-27.733 38.4-57.6 74.667-85.333 106.667H550.4c-14.933 0-27.733 12.8-27.733 27.733v6.4c-29.867 29.867-57.6 55.467-85.333 76.8-12.8 0-25.6 8.533-27.733 21.333-27.733 19.2-53.333 38.4-78.933 53.333-2.133 0-4.267-2.133-6.4-2.133-12.8 0-25.6 8.533-27.733 21.333-25.6 14.933-49.067 27.733-70.4 38.4-4.267-2.133-10.667-4.267-14.933-4.267-14.933 0-27.733 12.8-27.733 27.733-61.867 32-98.133 55.467-98.133 93.867 0 27.733 19.2 53.333 59.733 68.267 6.4 8.533 14.933 14.933 25.6 14.933 6.4 0 10.667-2.133 14.933-4.267 17.067 2.133 36.267 4.267 57.6 4.267 29.867 0 64-4.267 96-8.533 4.267 6.4 12.8 8.533 21.333 8.533 12.8 0 23.467-8.533 27.733-19.2C424.533 908.8 462.933 896 499.2 881.067c4.267 2.133 8.533 2.133 12.8 2.133 12.8 0 25.6-8.533 27.733-21.333 23.467-10.667 46.933-25.6 68.267-38.4 4.267 4.267 10.667 4.267 17.067 4.267 14.933 0 27.733-12.8 27.733-27.733v-6.4c19.2-12.8 36.267-27.733 55.467-42.667 4.267 2.133 8.533 2.133 12.8 2.133 14.933 0 27.733-12.8 27.733-27.733 0-4.267 0-6.4-2.133-10.667 17.067-17.067 34.133-36.267 51.2-55.467 14.933 0 27.733-12.8 27.733-27.733v-6.4c17.067-25.6 34.133-51.2 49.067-76.8 14.933 0 27.733-12.8 27.733-27.733 0-6.4-2.133-12.8-6.4-17.067 12.8-27.733 21.333-57.6 29.867-87.467 8.533-4.267 14.933-12.8 14.933-23.467 0-6.4-2.133-12.8-6.4-17.067 2.133-27.733 4.267-55.467 4.267-85.333z" fill="#4caf50"/><path d="M938.667 290.133C710.4 881.067 211.2 889.6 85.333 855.467c0 27.733 19.2 53.333 59.733 68.267 6.4 8.533 14.933 14.933 25.6 14.933 6.4 0 10.667-2.133 14.933-4.267 17.067 2.133 36.267 4.267 57.6 4.267 29.867 0 64-4.267 96-8.533 4.267 6.4 12.8 8.533 21.333 8.533 12.8 0 23.467-8.533 27.733-19.2C424.533 908.8 462.933 896 499.2 881.067c4.267 2.133 8.533 2.133 12.8 2.133 12.8 0 25.6-8.533 27.733-21.333 23.467-10.667 46.933-25.6 68.267-38.4 4.267 4.267 10.667 4.267 17.067 4.267 14.933 0 27.733-12.8 27.733-27.733v-6.4c19.2-12.8 36.267-27.733 55.467-42.667 4.267 2.133 8.533 2.133 12.8 2.133 14.933 0 27.733-12.8 27.733-27.733 0-4.267 0-6.4-2.133-10.667 17.067-17.067 34.133-36.267 51.2-55.467 14.933 0 27.733-12.8 27.733-27.733v-6.4c17.067-25.6 34.133-51.2 49.067-76.8 14.933 0 27.733-12.8 27.733-27.733 0-6.4-2.133-12.8-6.4-17.067 12.8-27.733 21.333-57.6 29.867-87.467 8.533-4.267 14.933-12.8 14.933-23.467 0-6.4-2.133-12.8-6.4-17.067 2.133-27.733 4.267-55.467 4.267-85.333z" fill="#388e3c"/><path d="M810.667 256c12.8 0 21.333 8.533 21.333 21.333s-10.667 21.333-21.333 21.333c-12.8 0-21.333-8.533-21.333-21.333S797.867 256 810.667 256zM768 490.667c12.8 0 21.333 8.533 21.333 21.333S780.8 533.333 768 533.333 746.667 524.8 746.667 512 755.2 490.667 768 490.667zm-64-64c12.8 0 21.333 8.533 21.333 21.333S714.667 469.333 704 469.333c-12.8 0-21.333-8.533-21.333-21.333S691.2 426.667 704 426.667zM618.667 640c12.8 0 21.333 8.533 21.333 21.333s-8.533 21.333-21.333 21.333-21.333-8.533-21.333-21.333S605.867 640 618.667 640zm-85.333 21.333c12.8 0 21.333 8.533 21.333 21.333S546.133 704 533.333 704 512 695.467 512 682.667s8.533-21.333 21.333-21.333zM405.333 768c12.8 0 21.333 8.533 21.333 21.333s-8.533 21.333-21.333 21.333S384 802.133 384 789.333 392.533 768 405.333 768zM256 789.333c12.8 0 21.333 8.533 21.333 21.333S268.8 832 256 832s-21.333-8.533-21.333-21.333S243.2 789.333 256 789.333z" fill="#aed581"/></svg>